<svg width="92" height="110" viewBox="0 0 92 110" fill="none" xmlns="http://www.w3.org/2000/svg">
<rect width="100%" height="100%" fill="white" />
<path d="M29.2922 24.5659C27.7109 24.6366 26.3574 26.5942 26.968 28.3724C27.5195 29.9493 29.3014 29.797 30.3905 29.2261C32.5233 28.1385 31.6164 24.468 29.2922 24.5659ZM30.5455 28.7095C29.593 29.4327 27.679 29.5632 27.2005 28.2962C26.722 27.0292 27.6562 25.2728 29.0006 25.0336C31.065 24.5877 32.0311 27.5839 30.5455 28.7095ZM38.8761 26.48C39.2316 25.9362 39.9197 25.474 40.4347 25.7514C40.7355 25.9199 40.9132 25.4468 40.5714 25.3707C40.2158 25.2963 39.8496 25.3497 39.5194 25.5239C39.1892 25.6982 38.9098 25.9855 38.7166 26.3495C38.7095 26.362 38.7044 26.3761 38.7018 26.3909C38.6991 26.4057 38.699 26.421 38.7013 26.4359C38.7036 26.4508 38.7084 26.465 38.7153 26.4777C38.7223 26.4904 38.7312 26.5014 38.7417 26.5099C38.7522 26.5185 38.764 26.5245 38.7764 26.5276C38.7888 26.5308 38.8016 26.531 38.8141 26.5282C38.8266 26.5254 38.8385 26.5197 38.8491 26.5115C38.8598 26.5032 38.869 26.4925 38.8761 26.48ZM19.321 9.98188C20.1619 10.4124 21.041 10.728 21.9414 10.9226C22.0508 10.9226 22.11 10.7649 22.1374 10.667C22.5005 9.32392 23.2409 8.17149 24.2337 7.40439C28.0299 4.7399 31.6848 9.29129 30.0943 13.598C29.2102 15.9852 26.9042 16.6758 25.0221 17.3065C24.6849 17.4207 24.7623 17.5947 25.0905 18.53C25.6434 20.1178 26.1888 21.7075 26.7265 23.2989C26.8359 23.6089 27.3007 23.4077 27.4876 23.3642C27.7792 23.3044 29.3743 23.0814 29.4244 22.6083C29.4745 22.1353 28.4491 19.6121 28.2532 19.0792C31.8716 17.8938 34.3189 13.3152 33.494 8.88346C32.4595 3.3859 27.4147 2.08627 23.4179 3.66866C21.3125 4.50607 19.2162 6.75186 19.1843 9.60124C19.1843 9.88944 19.1387 9.88944 19.321 9.98188ZM22.8939 4.27769C26.8541 2.4506 32.0813 3.32608 33.1613 8.98678C33.9725 13.1902 31.5435 17.5675 28.1119 18.6823C27.9752 18.7258 27.8294 18.8019 28.0709 19.3729C28.4537 20.3027 29.0598 22.1461 29.1965 22.5105C28.4807 22.7897 27.7457 22.9935 26.9999 23.1195L25.095 17.7252C26.8906 17.5839 29.6523 15.8818 30.4179 13.7937C31.9582 9.56862 28.6041 4.54414 24.5026 6.84974C23.8688 7.20785 23.3102 7.73071 22.8678 8.37995C22.4254 9.0292 22.1104 9.78837 21.946 10.6018L19.3939 9.71C19.4258 7.39352 21.1484 5.08247 22.8939 4.27769ZM39.619 27.97C39.3455 27.6709 38.63 28.9433 38.9946 29.2043C39.1997 29.3457 39.897 28.2745 39.619 27.97ZM45.5844 27.7035C45.8458 27.8796 46.0646 28.1334 46.2195 28.4402C46.3744 28.747 46.4602 29.0964 46.4685 29.4545C46.4686 29.4807 46.4759 29.5062 46.4893 29.527C46.5028 29.5478 46.5215 29.5627 46.5428 29.5695C46.564 29.5763 46.5866 29.5746 46.6069 29.5646C46.6272 29.5546 46.6443 29.5369 46.6554 29.5143C46.9379 28.6279 46.3728 27.7524 45.7758 27.2848C45.5343 27.089 45.3383 27.6165 45.5844 27.7035ZM42.3123 36.616C42.9549 35.9961 44.003 35.8873 44.5226 36.7845C44.9145 37.4643 44.5818 38.2962 43.88 38.0896C43.6821 37.9937 43.4902 37.8811 43.3058 37.7525C43.2887 37.7449 43.2701 37.743 43.2522 37.7471C43.2342 37.7511 43.2175 37.761 43.2039 37.7755C43.1903 37.7901 43.1803 37.8088 43.1749 37.8296C43.1696 37.8505 43.1692 37.8727 43.1736 37.8938C43.4243 38.7911 44.9099 38.7476 45.0239 37.5676C45.1606 36.1592 43.406 35.039 42.212 36.48C42.1969 36.4959 42.1877 36.5183 42.1864 36.5422C42.1852 36.5662 42.1919 36.5898 42.2052 36.6078C42.2185 36.6258 42.2373 36.6368 42.2573 36.6384C42.2774 36.6399 42.2972 36.6318 42.3123 36.616ZM43.9256 31.3196C44.3813 31.5697 44.837 30.2049 44.4679 30.02C44.0987 29.8351 43.643 31.1782 43.9256 31.3196ZM40.9315 33.3153C41.574 33.6252 41.4738 33.2283 41.3872 33.1358C40.8683 32.8216 40.3324 32.5491 39.783 32.3202C40.4529 31.0532 41.0864 29.7699 41.8201 28.5518C41.8839 28.4485 41.7472 28.318 41.6834 28.4267C40.9907 29.585 40.2889 30.7378 39.619 31.9123C39.1906 32.6573 39.3273 32.5431 40.9315 33.3153ZM57.3148 78.4431C57.6305 78.2524 57.8815 77.9378 58.0257 77.5521C58.1699 77.1665 58.1984 76.7334 58.1064 76.3257C58.0144 75.9179 57.8076 75.5604 57.5206 75.3132C57.2337 75.066 56.8842 74.9443 56.5309 74.9684C54.1475 74.9684 54.3434 80.3899 57.3148 78.4431ZM67.1675 65.9744C68.161 67.1163 70.4305 66.6269 69.7287 64.2343C68.8947 61.3795 65.3629 63.9026 67.1675 65.9744ZM64.5198 86.4149C61.3935 86.7194 63.0387 91.8907 65.2535 90.3246C66.7619 89.2534 66.0875 86.2409 64.5198 86.4149ZM56.4443 59.895C56.0843 58.0842 53.5505 57.6329 52.9854 59.7318C52.1013 63.0434 57.0231 62.8151 56.4443 59.895ZM75.799 78.3289C72.6317 79.6993 77.4122 85.2512 78.228 80.2865C78.5333 78.4595 77.0796 77.7743 75.799 78.3289ZM45.9946 69.982C45.6394 70.0431 45.3121 70.2462 45.0661 70.558C44.8201 70.8698 44.6701 71.272 44.6405 71.6987C44.6108 72.1255 44.7034 72.5516 44.903 72.9074C45.1026 73.2633 45.3974 73.5279 45.7394 73.6579C48.0863 74.4953 48.4828 69.547 45.9946 69.982Z" fill="black"/>
<path d="M83.3639 85.5339C83.2044 77.0292 78.8522 68.182 74.4271 61.6948C75.4934 59.9515 76.0949 57.8654 76.1535 55.7084C76.212 53.5513 75.7248 51.4232 74.7553 49.6012C73.5111 47.263 71.8341 46.4528 71.3054 44.7073C70.6674 42.63 71.4649 40.3571 71.3555 38.2581C71.2279 35.735 69.9884 32.9563 67.8055 32.2766C66.3563 31.8252 64.2143 32.63 63.435 29.4761C62.8244 27.0019 63.8908 23.3423 62.0679 19.8894C61.0926 18.0351 59.3745 17.0074 57.702 16.3059C55.5875 15.4195 53.0855 15.0715 51.0485 16.3875C49.8305 15.8275 48.5163 15.6315 47.2204 15.8165C48.6559 14.0329 49.2711 10.3244 48.5875 7.97526C48.3779 7.2466 44.8369 10.2537 44.5817 14.0166C43.1462 12.0101 41.7289 11.3412 39.6417 11.0204C38.8396 10.8953 40.5121 15.8654 41.9476 16.5234C40.8539 16.643 39.3409 17.0672 38.5525 18.0297C38.3052 18.3852 38.1205 18.7965 38.0093 19.2391C37.8981 19.6817 37.8627 20.1464 37.9052 20.6056C37.9478 21.0648 38.0673 21.5091 38.2568 21.9121C38.4463 22.315 38.7019 22.6682 39.0082 22.9508C37.3813 26.0395 35.9503 29.4381 35.6814 33.1248C34.3864 33.509 33.27 34.4856 32.5734 35.8437C30.6365 39.2151 32.8878 40.7377 32.1678 43.4022C31.3156 46.605 28.7407 45.4142 27.5194 47.5403C26.6079 49.0792 26.8221 51.2489 27.7062 52.7442C26.371 53.6578 24.6893 54.7943 23.632 56.1048C23.8736 47.7252 22.9621 39.9764 22.6067 38.2472C22.5565 38.0188 21.841 38.1983 21.6496 38.2146C22.0398 37.2082 22.3083 36.1408 22.4472 35.0444C22.5246 34.0221 22.4472 32.5593 21.3489 32.4778C21.2532 32.1569 21.3489 28.8562 19.5943 27.04C19.2115 26.643 18.8059 26.5669 18.815 27.2901C18.815 28.3777 19.4485 29.3293 19.5351 31.0966C19.1188 31.1253 18.7183 31.2971 18.3821 31.5914C16.8372 31.1129 15.1647 35.2999 16.5592 35.6099C16.3756 36.3869 16.419 37.2153 16.6822 37.959C16.5592 37.959 16.2949 37.8394 16.2265 38.0079C12.9316 45.6752 8.28779 59.3946 9.55926 67.834C11.0404 77.66 19.9042 80.3898 27.1457 79.411C27.5718 84.2995 28.7751 89.0462 30.6912 93.3969C31.229 94.604 33.4256 99.7699 34.6424 100.977C34.2949 102.712 34.119 104.49 34.1183 106.273C34.1183 106.447 34.337 106.42 34.3416 106.273C34.3916 104.604 34.5793 102.945 34.9021 101.32C35.9081 101.823 36.9348 102.266 37.9783 102.646C46.1774 105.574 54.9053 105.659 63.1434 102.891C64.3511 102.483 65.6499 102.103 66.7026 101.26C67.1173 102.891 67.573 104.452 68.0151 106.045C68.0184 106.058 68.0238 106.071 68.0311 106.081C68.0384 106.092 68.0473 106.101 68.0575 106.107C68.0677 106.114 68.0788 106.118 68.0903 106.12C68.1018 106.121 68.1134 106.12 68.1245 106.116C68.1355 106.112 68.1458 106.105 68.1548 106.097C68.1638 106.088 68.1712 106.077 68.1767 106.065C68.1822 106.053 68.1857 106.04 68.1869 106.026C68.1881 106.012 68.187 105.998 68.1837 105.985C67.7736 104.234 67.3771 102.483 66.935 100.749C67.2275 99.1937 67.3803 97.606 67.3907 96.0124C70.1798 96.4909 74.1264 96.8825 76.8698 96.2245C79.6133 95.5665 81.9056 93.7884 82.7942 90.5094C83.2222 88.9022 83.4149 87.2191 83.3639 85.5339ZM53.9469 19.8676C54.7854 21.7599 55.0133 24.5278 54.7489 26.6104C54.5769 28.185 54.0456 29.6728 53.2131 30.9117L52.7574 30.7594C53.8831 26.4092 52.8531 21.4337 49.6494 18.7583C48.3771 17.7908 46.9541 17.1397 45.4658 16.8442C48.1409 15.0063 52.4977 16.5832 53.9469 19.8676ZM48.4463 8.32871C48.7106 12.6354 48.1728 14.1036 46.6234 15.9416C46.3297 16.0173 46.045 16.136 45.7757 16.295C45.547 15.5702 45.219 14.8959 44.805 14.2994C45.1924 11.8089 46.3773 9.29663 48.4463 8.32871ZM39.7647 11.314C39.7647 11.2379 39.7647 11.2542 39.8194 11.2705C42.9138 12.1134 44.0713 13.1248 45.4977 16.4799C45.3883 16.5619 45.2861 16.6566 45.1924 16.7627C44.3124 16.549 43.415 16.4542 42.5173 16.4799C41.0863 16.1808 39.9971 12.8638 39.7647 11.314ZM39.3545 23.1629C42.3168 25.0933 47.0381 26.7464 50.538 26.2026C49.5867 27.5733 49.099 29.3189 49.1709 31.0966C49.2255 32.4778 49.941 33.3804 50.9482 32.3581C51.4723 31.8143 52.1422 30.8627 52.926 31.1727C53.7099 31.4826 53.6051 32.5539 53.2815 33.3478C52.0829 36.2787 49.7815 35.7893 50.6748 42.5539C50.8271 43.7048 51.0666 44.8369 51.3902 45.9362C51.2382 46.82 50.832 47.6125 50.2418 48.1765C47.5394 51.102 42.3441 50.4006 42.4307 46.3821C42.4563 45.2739 42.4335 44.1649 42.3623 43.0596C40.5713 42.6246 38.2973 41.6349 37.1807 39.7643C36.7993 39.0833 36.5187 38.3292 36.3513 37.5349C35.5812 34.3375 36.1098 30.9226 37.1899 27.9155C37.7883 26.2558 38.5129 24.6649 39.3545 23.1629ZM51.6865 46.1483C52.1878 46.2026 52.6663 46.2842 53.1402 46.3766C53.1402 46.8117 53.596 48.5517 53.245 50.6507C52.9033 52.8748 51.5816 55.1858 49.5582 55.3816C46.5049 55.6698 45.7985 52.0754 45.8122 50.3244C49.7177 50.6561 51.846 46.8987 51.6865 46.1483ZM45.2152 50.2374C45.001 50.2374 44.4769 52.7388 42.5811 53.25C40.7855 53.7394 39.6918 52.0265 40.0245 49.9873C40.2842 48.356 41.2823 47.2304 41.4782 46.7247L42.1117 46.5561C41.975 48.6333 43.4652 49.884 45.2152 50.2374ZM21.7681 32.9508C22.4791 33.4946 22.1282 35.5501 21.914 36.3222C21.7408 36.9585 21.5357 37.5892 21.3443 38.22C19.8917 38.2973 18.4363 38.2135 16.9967 37.9699C16.8005 37.1898 16.7324 36.3718 16.7962 35.561C17.0041 35.4926 17.1849 35.3384 17.3066 35.1259C17.7304 35.7187 18.3548 34.8704 18.6738 34.506L19.4713 34.6583C18.9264 35.126 18.531 35.801 18.3502 36.5724C18.3518 36.5963 18.3599 36.6188 18.3734 36.6366C18.3868 36.6544 18.4048 36.6664 18.4245 36.6707C18.4443 36.675 18.4647 36.6715 18.4825 36.6606C18.5004 36.6497 18.5148 36.6321 18.5234 36.6104C18.6541 36.1875 18.8568 35.8015 19.1188 35.4768C19.3808 35.152 19.6963 34.8955 20.0455 34.7235C20.6288 34.5223 20.5012 34.245 20.0455 34.3538C19.9042 34.3864 18.4732 34.2994 18.4459 34.0221C18.4186 33.7447 20.9524 32.3309 21.7681 32.9508ZM19.5989 31.3956V32.0482C19.5989 32.1515 19.7538 32.1569 19.7721 32.0482C20.1321 29.6719 19.1751 28.6278 19.1751 27.1977C19.1751 26.9312 19.3254 27.1216 19.4303 27.1977C20.925 28.6278 21.0526 31.2543 21.0845 32.4506C20.1902 32.5496 19.3297 32.908 18.5781 33.4946C18.1952 33.7447 17.8808 34.158 18.4094 34.4299C18.1907 34.6202 17.6347 35.3706 17.4342 34.8051C17.2337 34.2396 17.9674 31.4391 19.5852 31.3848L19.5989 31.3956ZM16.386 34.9247C16.2994 33.6958 17.0514 32.0155 18.1223 31.8633C17.5117 32.5756 16.9648 34.2124 17.1699 34.9302C16.983 35.2293 16.4088 35.6316 16.3723 34.9139L16.386 34.9247ZM16.4453 38.1276C18.2909 38.7692 20.4556 38.5517 22.3697 38.481L22.7388 41.5588C20.284 41.7962 17.8131 41.5518 15.4244 40.8356C15.7526 39.922 16.0989 39.0302 16.4316 38.1167L16.4453 38.1276ZM82.0696 91.635C79.9733 88.7476 77.7266 93.2664 79.6406 94.5932C78.0137 95.7188 76.1133 96.0668 74.2585 96.1266C67.5502 96.3441 60.5002 94.3485 54.4436 90.9499C54.7535 86.5997 53.9013 83.2174 52.6663 80.9934C57.7841 79.4327 61.7261 79.0412 66.657 78.6932C66.7391 78.6932 66.7573 78.5192 66.657 78.5137C65.7014 78.4602 64.744 78.4802 63.7905 78.5736C63.7039 78.0896 60.728 74.4844 57.8661 67.1543C57.8205 67.0401 57.6701 67.0945 57.7111 67.2141C59.1544 71.0974 60.9811 74.7612 63.1525 78.1277C63.2482 78.2799 63.3485 78.4322 63.4578 78.579C58.4407 78.9165 53.4832 80.0465 48.7151 81.9395C48.4964 82.032 48.6468 82.2984 48.7744 82.418C48.0926 82.4599 47.4169 82.5931 46.7601 82.815C46.4593 82.6138 45.4613 82.5322 44.723 81.6785C43.8115 80.591 43.7386 83.1358 44.9007 83.734C41.7927 85.7623 41.0909 88.7965 41.9932 88.6823C42.2119 88.6551 42.3851 88.3996 42.5401 88.2201C42.8089 87.921 43.0869 87.6274 43.3513 87.312C42.0524 90.5747 43.4105 91.5752 43.7796 90.0309C44.027 88.9969 44.4986 88.059 45.1468 87.312C44.3721 89.1174 45.0557 91.3523 45.721 90.7487C46.0947 90.4007 45.958 88.5736 47.2568 87.709C47.4027 87.6165 47.5576 87.5567 47.7125 87.4697C48.1273 88.0896 49.4853 88.9325 51.0211 88.927C51.0667 89.0521 51.0712 89.1119 51.135 89.1609C56.0419 92.5944 61.4575 94.8672 67.0854 95.8547C67.074 97.5003 66.9213 99.1402 66.6297 100.749C65.3309 101.793 62.3276 102.668 60.7463 103.092C54.6627 104.708 48.3647 104.804 42.2484 103.375C40.8402 103.043 35.6632 101.668 34.8383 100.526C33.2934 98.3887 32.6007 96.4638 31.4386 94.0005C29.119 89.0793 27.4875 82.6627 27.4237 77.0129C27.3301 72.6142 28.2914 68.2751 30.1945 64.5061C31.0883 62.9218 32.056 61.3987 33.0929 59.9438C33.1658 59.8459 33.0382 59.71 32.9698 59.8079C31.2244 62.1733 29.716 64.3158 28.6678 67.2413C27.3815 70.9284 26.8624 74.9322 27.1548 78.9107C21.4993 79.7644 15.1054 78.4811 11.6055 72.5703C13.1048 71.8416 12.6263 67.9428 10.0788 68.5953C8.91669 63.1575 10.7441 55.1586 12.2298 50.1069C13.1413 47.002 14.2168 43.9786 15.3561 40.977C16.5182 41.6675 20.3372 42.1624 22.7981 41.8796C23.4597 48.3305 23.5971 54.8426 23.2082 61.325C23.2082 61.4446 23.3586 61.4446 23.3768 61.325C23.5743 59.7315 23.6778 58.1234 23.6867 56.5126C25.6509 54.2886 29.0415 52.1624 31.4933 50.7867C31.1515 51.847 32.0447 53.0977 32.9744 53.0923C34.8884 53.0923 34.9067 49.9764 33.5714 49.6937C35.9903 48.5017 38.4849 47.5416 41.0316 46.8225C40.1202 48.2853 39.2087 50.145 39.8695 51.9938C40.6443 54.2124 43.3877 54.4354 44.9782 51.3522C42.8825 56.6027 41.529 62.2305 40.9724 68.008C40.9724 68.1385 41.1228 68.182 41.141 68.0515C41.8381 62.0929 43.3192 56.3029 45.5296 50.8954C45.5488 52.1019 45.8834 53.2711 46.4866 54.2396C48.8154 57.8938 54.9176 54.9628 53.482 46.4365C56.8848 47.1579 60.1578 48.5744 63.1571 50.6235C62.8298 50.967 62.6195 51.4416 62.5657 51.9577C62.512 52.4737 62.6186 52.9954 62.8654 53.424C62.9912 53.6531 63.1536 53.8503 63.3434 54.0044C63.5332 54.1585 63.7466 54.2665 63.9714 54.322C64.1961 54.3776 64.4279 54.3797 64.6534 54.3282C64.8788 54.2768 65.0936 54.1727 65.2853 54.0221C65.4643 53.8638 65.6093 53.657 65.7084 53.4188C65.8074 53.1806 65.8577 52.9177 65.855 52.6518C70.8224 56.7845 74.8282 62.3745 78.0182 68.4702C80.4655 73.1467 82.6119 78.6769 82.9674 84.3049C83.1224 86.7846 82.9993 89.3892 82.0696 91.6242V91.635ZM45.8805 86.2408L45.4567 86.7846C43.447 88.4159 43.6338 90.9336 43.1781 90.417C42.6175 89.7644 43.5563 86.9042 44.3994 86.0124C45.1195 85.2511 44.2855 85.3599 43.6292 86.6812L43.5928 86.7247C43.0828 87.2182 42.5946 87.7427 42.1299 88.2962C41.1091 89.4164 42.458 83.2881 49.0068 82.7062C50.374 84.2016 50.7294 86.4692 50.971 88.5953C49.1116 88.5953 47.831 87.2087 47.6624 87.2305C46.6461 87.3718 45.9899 88.7421 45.7393 89.7971C45.7074 89.9276 45.6344 90.504 45.5251 90.5475C45.1833 90.6889 44.5316 88.0896 45.9808 86.4093C46.0902 86.2788 45.9671 86.1375 45.8805 86.2408ZM45.124 83.5872C44.3083 83.2935 44.0713 81.6404 44.3721 81.7166C44.9267 82.3052 45.5857 82.7364 46.2998 82.9781C45.894 83.1341 45.5006 83.3324 45.124 83.5708V83.5872ZM48.8974 82.2712C48.7698 82.2712 51.6318 81.2979 52.4475 81.0477C54.1975 84.7835 54.3297 87.573 54.12 90.7759L51.3492 89.063C51.0485 85.9635 50.2373 83.2881 48.8974 82.2549V82.2712Z" fill="black"/>
<path d="M20.8292 72.2769C21.3943 73.62 24.0193 73.1578 23.9327 71.086C23.8142 68.117 19.5122 69.1611 20.8292 72.2769ZM18.7511 47.2034C18.8195 44.316 15.9028 44.7619 15.5975 47.6058C15.438 49.0632 18.6782 50.3138 18.7511 47.2034ZM18.3273 54.9686C17.7166 55.67 17.7622 58.0137 19.4712 57.9593C22.4197 57.8723 20.2504 52.7663 18.3273 54.9686ZM33.5758 85.6973C34.4873 87.2144 36.6246 86.1105 36.2646 84.1366C35.7542 81.3471 32.072 83.2177 33.5758 85.6973ZM35.5856 61.9724C33.7308 61.9724 33.4847 65.0229 34.8245 65.7299C38.0009 67.4047 38.1422 61.9724 35.5856 61.9724ZM47.439 98.6337C49.2254 100.091 51.5405 96.5728 49.5353 95.1861C47.4253 93.7125 45.5614 97.1165 47.439 98.6337Z" fill="black"/>
</svg>
