<svg width="96" height="102" viewBox="0 0 96 102" fill="none" xmlns="http://www.w3.org/2000/svg">
<rect width="100%" height="100%" fill="white" />
<path fill-rule="evenodd" clip-rule="evenodd" d="M41.8022 43.5849C41.7352 43.7226 41.5389 45.1149 42.3095 45.1149C42.4441 45.1152 42.5743 45.0638 42.6763 44.9701C42.7783 44.8765 42.8451 44.7468 42.8647 44.6049C43.0274 43.0443 42.0702 43.0494 41.8022 43.5849ZM48.7421 43.5645C48.7852 44.1051 48.8426 44.5845 49.3499 44.5845C49.4846 44.5848 49.6148 44.5334 49.7167 44.4397C49.8187 44.3461 49.8856 44.2164 49.9051 44.0745C49.9155 43.7463 49.8816 43.4183 49.8046 43.1004C49.527 42.5547 48.6703 42.6873 48.7421 43.5645ZM45.3918 48.4911C45.5402 48.4911 46.8276 48.4248 47.1292 48.1749C47.2201 48.1035 47.2105 47.9658 47.2105 47.8383C47.1818 46.3916 47.0506 44.9493 46.8181 43.5237C46.8181 43.4472 46.7558 43.4319 46.7176 43.4421C46.6793 43.4523 46.6601 43.5237 46.6649 43.6461C46.6649 44.0643 46.6314 44.2071 46.7702 46.548C46.8611 48.078 46.8229 47.6496 46.8516 47.9046C46.4027 48.0798 45.9419 48.2179 45.4732 48.3177C45.1621 48.3891 45.3822 48.4911 45.3918 48.4911ZM46.9042 52.0203C46.5491 52.2231 46.1575 52.3431 45.7555 52.3722C45.7352 52.3722 45.7158 52.3808 45.7014 52.3961C45.687 52.4114 45.679 52.4321 45.679 52.4538C45.679 52.4754 45.687 52.4962 45.7014 52.5115C45.7158 52.5268 45.7352 52.5354 45.7555 52.5354C45.9804 52.6215 46.2206 52.6525 46.4583 52.6261C46.6959 52.5997 46.925 52.5164 47.1283 52.3826C47.3316 52.2488 47.5039 52.0679 47.6325 51.8533C47.7611 51.6387 47.8427 51.3959 47.871 51.1431C47.8735 51.1327 47.8741 51.1219 47.8727 51.1113C47.8713 51.1006 47.8679 51.0904 47.8628 51.0812C47.8577 51.072 47.851 51.0639 47.8429 51.0574C47.8349 51.051 47.8257 51.0463 47.816 51.0436C47.8062 51.0409 47.7961 51.0403 47.7861 51.0418C47.7762 51.0433 47.7666 51.0469 47.7579 51.0523C47.7492 51.0578 47.7417 51.065 47.7356 51.0736C47.7296 51.0821 47.7252 51.0919 47.7226 51.1023C47.5288 51.4785 47.2469 51.7947 46.9042 52.0203ZM25.4527 12.6891C26.6827 17.07 31.0333 16.8558 31.5407 17.1822C31.5407 17.2332 32.5362 21.3183 32.9382 21.8793C33.1632 22.1904 33.704 22.068 34.063 21.9966C34.9053 21.8181 35.8817 21.762 36.5948 21.1551C36.7767 20.997 36.6714 20.3544 36.6236 20.1351C36.4712 19.2181 36.2601 18.3132 35.9918 17.427C35.8862 17.1596 35.7967 16.8853 35.7238 16.6059C36.054 16.2941 36.4133 16.019 36.7959 15.7848C37.4274 15.3263 37.9891 14.7673 38.4614 14.1273C39.3753 12.7007 39.7884 10.9767 39.6283 9.25783C39.4681 7.539 38.7449 5.93521 37.5856 4.72797C34.039 1.02027 27.6256 2.22897 25.5436 6.90567C24.8305 8.52747 24.9693 10.9857 25.4527 12.6891ZM36.3747 20.9103C35.7381 21.456 34.8 21.5274 33.9816 21.7059C33.7614 21.7569 33.2398 21.8946 33.101 21.7059C32.8301 21.2893 32.6353 20.8222 32.5266 20.3289C33.7664 20.1427 34.979 19.7897 36.1354 19.2783C36.2918 19.8063 36.3725 20.3565 36.3747 20.9103ZM36.0827 19.0692C34.8598 19.312 33.6588 19.667 32.4931 20.13C32.3695 19.5381 32.2096 18.9554 32.0145 18.3858C33.2511 18.2478 34.4638 17.9286 35.6185 17.4372C35.8116 17.9763 35.9715 18.5283 36.0971 19.0896L36.0827 19.0692ZM25.8451 7.06377C27.8505 2.64717 33.9816 1.53027 37.3319 5.02377C38.4208 6.16188 39.102 7.66987 39.2576 9.28671C39.4132 10.9036 39.0334 12.5275 38.1838 13.8774C37.3558 15.1218 35.6807 15.9786 35.4222 16.4274C35.3313 16.5855 35.4988 16.9884 35.6041 17.274C35.0585 17.3862 34.4602 17.5239 33.9242 17.6514C33.7806 16.9527 33.1105 14.1324 32.8616 13.4694C32.7659 13.2042 32.6798 13.2246 32.4261 13.3011C31.0285 13.3011 29.4922 12.9237 28.9992 11.5212C28.9397 11.3568 28.8979 11.1857 28.8748 11.0112C28.8078 10.2768 29.3534 9.41997 29.9564 9.48117C29.8703 10.0422 29.9564 11.1132 30.4063 11.4345C30.8562 11.7558 31.3636 11.2458 31.3636 10.7868C31.3381 10.4558 31.2371 10.1364 31.0694 9.85646C30.9018 9.5765 30.6725 9.34438 30.4016 9.18027C30.4768 8.9982 30.5883 8.83574 30.7283 8.70417C30.8684 8.57259 31.0336 8.47504 31.2125 8.41827C31.3914 8.36151 31.5798 8.34689 31.7646 8.37543C31.9493 8.40398 32.1261 8.475 32.2825 8.58357C31.9044 9.36897 32.2825 11.1693 32.9526 10.746C33.6226 10.3227 33.4025 9.28227 32.9861 8.70597C32.7851 8.42547 32.742 8.50197 32.8425 8.42037C33.6226 7.81347 34.5081 8.51727 34.8814 9.44037C35.4174 10.7103 34.2688 12.276 33.5413 12.7503C33.5235 12.7618 33.5107 12.7803 33.5058 12.8018C33.5009 12.8234 33.5042 12.8461 33.515 12.865C33.5257 12.884 33.5431 12.8975 33.5633 12.9028C33.5835 12.9081 33.6049 12.9046 33.6226 12.8931C34.5129 12.3372 35.6376 10.7001 35.1255 9.32307C34.6134 7.94607 33.3259 7.41567 32.5123 8.23677C32.3074 8.08698 32.0736 7.98808 31.8281 7.94736C31.5826 7.90664 31.3316 7.92513 31.0937 8.00148C30.8558 8.07782 30.637 8.21008 30.4534 8.38849C30.2699 8.56691 30.1262 8.78694 30.033 9.03237C29.1428 8.90997 28.3914 10.0167 28.4919 11.0214C28.5459 11.4654 28.7035 11.888 28.9501 12.2506C29.1967 12.6131 29.5246 12.9041 29.9038 13.0971C30.3537 13.3266 31.9523 13.7448 32.584 13.551C32.8042 14.061 33.6035 17.0547 33.7471 17.682C31.622 18.192 32.0528 18.4317 31.9475 18.1002C31.823 17.6871 31.7465 17.0802 31.6412 17.0394C28.9992 16.4019 26.6157 15.9327 25.7255 12.5922C25.2899 10.9755 25.1751 8.57847 25.8451 7.06377ZM30.2867 9.58317C30.4681 9.72029 30.6196 9.89737 30.7311 10.1024C30.8426 10.3074 30.9114 10.5356 30.9328 10.7715C30.9328 10.9092 30.6409 11.2815 30.4542 10.8735C30.3113 10.4615 30.2605 10.0197 30.3058 9.58317H30.2867ZM32.5458 8.80287C32.9286 9.20067 33.168 10.1289 32.7516 10.3992C32.6072 10.1665 32.5138 9.90228 32.4782 9.62598C32.4426 9.34968 32.4656 9.06838 32.5458 8.80287ZM18.1873 28.2696C20.1353 27.6219 22.4948 28.1829 23.4042 30.4779C24.9788 34.3641 20.8149 36.3429 20.858 36.5469C20.9537 37.0569 21.126 37.9494 21.1978 38.4645C21.2035 38.5077 21.2251 38.5468 21.2579 38.5731C21.2906 38.5994 21.3319 38.6108 21.3725 38.6047C21.4131 38.5986 21.4498 38.5756 21.4745 38.5407C21.4992 38.5058 21.5098 38.4619 21.5041 38.4186C21.4467 37.9086 21.3844 37.1742 21.3174 36.6438C21.9941 36.3545 22.6203 35.9459 23.1697 35.4351C26.5487 31.1868 22.7772 25.8267 17.9576 27.5046C17.1944 27.7417 16.5194 28.2261 16.0263 28.8904C15.5331 29.5548 15.2463 30.3663 15.2055 31.2123C15.0524 33.2217 16.5552 34.9557 18.9818 34.7313C19.0184 34.7244 19.0515 34.704 19.0754 34.6737C19.0993 34.6434 19.1124 34.6051 19.1124 34.5655C19.1124 34.5259 19.0993 34.4876 19.0754 34.4573C19.0515 34.427 19.0184 34.4066 18.9818 34.3998C16.828 34.5171 15.6746 32.8698 15.8804 31.2888C15.928 30.5942 16.1749 29.9321 16.5876 29.392C17.0002 28.852 17.5587 28.4601 18.1873 28.2696ZM53.9351 14.9637C53.9757 14.9752 54.0189 14.969 54.0553 14.9465C54.0916 14.924 54.1181 14.8871 54.1289 14.8438C54.1397 14.8005 54.1339 14.7545 54.1128 14.7157C54.0917 14.677 54.0571 14.6488 54.0164 14.6373C51.944 14.0151 51.3458 12.0618 52.0158 10.6287C52.2768 9.98862 52.7162 9.44957 53.2744 9.08465C53.8326 8.71972 54.4827 8.54657 55.1364 8.58867C58.7356 8.68557 60.315 12.2148 58.9653 14.7342C58.0703 16.458 56.8738 16.9221 55.3422 17.1363C55.2938 17.1435 55.249 17.1673 55.2145 17.2041C55.1799 17.2409 55.1576 17.2887 55.1508 17.3403C55.0981 17.8095 54.9832 18.7326 54.8971 19.2681C54.8888 19.3107 54.8968 19.355 54.9193 19.3914C54.9417 19.4277 54.9768 19.4531 55.0167 19.4619C55.0567 19.4707 55.0984 19.4622 55.1325 19.4383C55.1666 19.4143 55.1904 19.377 55.1986 19.3344C55.3087 18.7836 55.4571 18.1359 55.5576 17.5902C56.2847 17.5485 56.9999 17.3761 57.6731 17.0802C59.2956 16.0602 60.2815 14.4486 60.1523 12.4086C59.8508 7.61967 53.2937 5.90607 51.408 10.3686C50.6757 12.1842 51.5659 14.3925 53.9351 14.9637ZM80.5269 38.8929C80.4721 37.9475 80.1557 37.0407 79.6176 36.2868C79.0999 35.6662 78.4686 35.165 77.7623 34.8142C77.0561 34.4633 76.29 34.2702 75.5111 34.2468C74.7182 34.2076 73.9335 34.432 73.2656 34.8888C72.5976 35.3456 72.0794 36.0124 71.7826 36.7968C71.0312 38.6481 71.9358 40.8054 74.2954 41.4174C74.3164 41.4275 74.3392 41.4325 74.3623 41.4322C74.3854 41.4319 74.4081 41.4262 74.4288 41.4155C74.4496 41.4048 74.4679 41.3894 74.4825 41.3704C74.4971 41.3513 74.5076 41.3291 74.5133 41.3053C74.519 41.2815 74.5197 41.2567 74.5154 41.2325C74.5111 41.2084 74.5019 41.1855 74.4884 41.1656C74.4749 41.1456 74.4575 41.1291 74.4374 41.1171C74.4173 41.1051 74.3949 41.0979 74.372 41.0961C72.3139 40.4331 71.7013 38.5461 72.3761 37.0875C72.6371 36.4474 73.0765 35.9084 73.6347 35.5434C74.1929 35.1785 74.843 35.0054 75.4967 35.0475C76.1605 35.0671 76.8136 35.23 77.4166 35.5263C78.0196 35.8226 78.5599 36.2461 79.005 36.7713C79.4533 37.3947 79.7196 38.145 79.7707 38.9286C80.1106 43.4268 75.5637 43.4421 75.5206 43.7991C75.4632 44.3091 75.3579 45.2067 75.267 45.7269C75.2587 45.7695 75.2667 45.8138 75.2891 45.8502C75.3116 45.8865 75.3466 45.9119 75.3866 45.9207C75.4266 45.9295 75.4682 45.921 75.5023 45.8971C75.5364 45.8731 75.5602 45.8358 75.5685 45.7932C75.6834 45.2475 75.8269 44.5947 75.9275 44.049C76.6559 44.0054 77.3724 43.833 78.0477 43.539C79.6463 42.5394 80.6562 40.9533 80.5269 38.8929ZM23.3276 42.3303C23.5334 41.4225 22.916 40.4688 22.3034 40.5453C21.9061 40.4995 21.506 40.4875 21.1068 40.5096C20.0683 40.7748 19.5801 42.2232 20.5564 42.9321C21.6764 43.7277 23.1266 43.1769 23.3276 42.3303ZM22.5858 42.2283C22.4158 42.3794 22.2076 42.4735 21.9875 42.4986C20.6857 42.6924 20.4081 41.4786 21.2839 41.0808L22.313 40.8768C22.7581 40.9176 22.8586 41.9325 22.5858 42.2028V42.2283ZM54.4998 21.2163C53.3847 20.7828 52.1786 22.1241 52.9683 23.2563C53.758 24.3885 55.3231 24.3885 55.773 23.6337C56.2229 22.8789 55.95 21.7365 55.347 21.5937C55.2943 21.5682 54.878 21.3642 54.4998 21.2163ZM55.1029 23.2563C54.8888 23.3339 54.6595 23.3512 54.4373 23.3065C54.215 23.2619 54.0074 23.1567 53.8346 23.0013C53.6932 22.893 53.5769 22.7517 53.4947 22.5882C53.356 22.1751 53.8537 21.7518 54.2175 21.7263L55.2513 21.8844C55.6533 22.1139 55.4523 23.1135 55.1029 23.2716V23.2563ZM75.7025 48.0831C75.6068 48.0372 75.1138 47.8179 74.8601 47.7159C73.7402 47.2824 72.5389 48.6237 73.3286 49.7559C74.1183 50.8881 75.6786 50.8881 76.1333 50.1333C76.5879 49.3785 76.3103 48.2259 75.7025 48.0831ZM75.4584 49.7712C75.2442 49.8483 75.015 49.8654 74.7929 49.8207C74.5707 49.776 74.3631 49.6712 74.1901 49.5162C74.0499 49.4045 73.934 49.2618 73.8503 49.098C73.7163 48.69 74.2092 48.2667 74.573 48.2412L75.6068 48.3993C76.0088 48.6135 75.8078 49.608 75.4584 49.7712Z" fill="black"/>
<path fill-rule="evenodd" clip-rule="evenodd" d="M71.792 76.2146C70.8348 71.1962 67.1111 63.4646 62.6409 61.4909L61.7411 59.4866C61.7346 59.4721 61.7253 59.4592 61.7138 59.4488C61.7023 59.4384 61.6888 59.4308 61.6743 59.4264C61.6598 59.4221 61.6446 59.4211 61.6297 59.4236C61.6147 59.426 61.6005 59.4319 61.5879 59.4407L60.6307 60.0986C60.3266 57.9338 59.3983 55.9234 57.9744 54.3458C58.9699 52.7087 60.5637 52.2089 62.2101 52.1324C63.5742 52.0712 64.5793 51.9845 65.369 50.7401C66.934 48.2819 66.5655 45.8849 64.7276 43.6001C61.9277 40.1219 60.8269 41.1623 59.4629 39.2396C56.8688 35.6288 56.2801 30.2891 52.4607 27.5096C47.5788 23.9855 44.9464 26.8262 43.9222 27.7034C42.4241 26.7344 39.0834 27.071 37.6476 28.3817C36.4271 29.4935 34.8094 30.9317 34.1824 32.5382C32.847 35.9297 32.9906 39.9434 31.0379 43.0187C30.5593 43.7837 29.7408 44.2988 29.1617 45.023C28.3668 46.085 27.6906 47.242 27.1467 48.4706C26.4384 49.8986 25.8976 51.4847 26.5437 52.9637C27.41 54.9425 29.3484 56.8295 31.416 56.6867C32.6125 56.6 34.1967 55.835 35.3215 56.3399C35.9916 56.6357 36.25 57.3242 36.7573 57.9005C37.906 59.2622 40.5863 59.6753 42.07 58.7318C40.4379 60.9452 37.9491 60.8687 33.608 63.4187C26.9457 67.3253 24.5144 71.7623 23.8012 76.3064C23.5284 77.7202 23.3271 79.1485 23.1982 80.5853C22.7866 87.9956 24.8972 97.3898 31.7414 98.9453C33.6176 99.3737 35.7666 99.6491 37.6236 99.1544C41.1415 98.2211 45.3389 95.6966 48.4212 93.6464C49.857 92.6927 55.1697 88.8728 57.6393 88.373C57.788 89.7341 58.11 91.0673 58.5966 92.3357C60.5732 96.6656 63.7369 99.2258 68.1689 98.114C71.0406 97.3949 71.859 94.136 71.9356 91.0148C73.3762 87.7202 72.2323 78.6116 71.792 76.2146ZM55.2319 52.3364C56.0838 52.5047 56.6677 53.3564 57.2995 54.05C58.9699 55.8299 60.1186 57.7373 60.4632 60.17C59.08 61.1084 58.1802 61.7 58.161 61.7306C58.1419 61.7612 57.4766 59.9558 57.0746 59.7365C56.4731 59.4183 55.9275 58.9922 55.4616 58.4768C55.1027 58.0535 54.6623 57.3089 54.7198 56.7479C54.9742 56.6037 55.2519 56.512 55.5382 56.4776V56.1614C54.0593 56.2073 53.5519 57.6455 53.4179 57.9668C53.3222 58.1963 53.1882 58.4258 52.8819 58.3901C52.5756 58.3544 52.4655 57.977 52.5804 57.6404C52.6952 57.3038 52.9728 55.8248 54.9304 55.5035C54.9549 55.4998 54.9785 55.491 54.9998 55.4776C55.0211 55.4642 55.0398 55.4465 55.0546 55.4254C55.0695 55.4043 55.0804 55.3804 55.0866 55.3548C55.0928 55.3293 55.0942 55.3027 55.0907 55.2766C55.0872 55.2504 55.079 55.2253 55.0664 55.2026C55.0538 55.1799 55.0372 55.16 55.0174 55.1441C54.9976 55.1283 54.9751 55.1167 54.9512 55.1101C54.9272 55.1035 54.9022 55.102 54.8777 55.1057C54.468 55.1612 54.0709 55.2942 53.7051 55.4984C53.3763 55.6695 53.0844 55.9115 52.8479 56.2091C52.6114 56.5068 52.4356 56.8535 52.3315 57.2273C52.1017 57.926 51.2977 57.6149 51.4891 57.0131C51.6818 56.4277 51.9684 55.8824 52.3363 55.4015C52.7448 54.9866 53.2354 54.6746 53.7721 54.4886C54.1933 54.305 54.5523 54.3917 54.648 54.2438C54.7437 54.0959 54.5188 53.6012 54.4039 53.4533C53.7865 52.6679 52.0108 53.3462 51.3312 52.469C50.8956 51.8927 51.8098 51.8723 52.1783 51.8213C53.2121 51.6989 54.1933 52.1273 55.2319 52.3364ZM56.9884 64.9742C55.6202 65.4494 54.2245 65.8293 52.8101 66.1115C53.2887 63.2096 53.6142 60.7208 53.5663 59.8181C54.6815 60.0476 55.9594 60.2108 57.3569 60.4556C57.735 61.1237 57.9409 61.6847 58.0318 61.8428L57.1033 62.4701C57.0554 62.5364 57.065 62.261 56.9884 64.9742ZM51.7906 79.7081C52.0026 80.6874 52.1529 81.6807 52.2405 82.6814C50.2782 82.5488 48.7802 82.5743 48.0431 82.5437C48.0718 81.1106 48.0862 80.6669 48.1101 80.366C49.318 80.0398 50.549 79.8198 51.7906 79.7081ZM44.262 67.1468C46.9772 67.1674 49.6888 66.9319 52.365 66.443C51.513 71.339 50.216 77.2244 49.6034 78.4025C48.1962 74.3123 48.3398 74.297 44.262 67.1468ZM50.0054 78.3362C50.7808 76.4849 51.9582 70.9616 52.7431 66.3614C54.1717 66.0761 55.5805 65.6876 56.9597 65.1986C56.8113 70.7066 56.7682 77.5814 57.0793 83.1047C56.17 83.018 54.849 82.8956 53.5663 82.7885C53.4849 81.9623 53.1643 79.0859 52.8915 78.3311C52.8197 78.1271 52.7335 78.0455 52.4128 78.0353C51.6125 78.0727 50.8158 78.1733 50.0293 78.3362H50.0054ZM51.7141 58.8797C51.2293 58.5777 50.8421 58.126 50.6037 57.5843C50.8253 57.6839 51.0563 57.7574 51.2929 57.8036C51.3826 57.9112 51.4984 57.9905 51.6275 58.0328C51.7566 58.0751 51.8942 58.0787 52.0252 58.0433C52.2405 57.9719 52.1017 57.9413 52.2166 58.2626C52.2607 58.392 52.335 58.5074 52.4326 58.5977C52.5301 58.6881 52.6476 58.7505 52.774 58.7791C52.9004 58.8077 53.0316 58.8015 53.1551 58.7611C53.2787 58.7207 53.3905 58.6474 53.4802 58.5482C53.6668 58.3697 53.6812 58.1555 53.9061 57.6965C54.1263 57.6506 54.3417 57.5894 54.5523 57.5231C55.1218 59.1143 56.907 59.8844 57.0315 60.0017C54.9304 59.6702 53.0685 59.4611 51.738 58.8797H51.7141ZM42.539 58.2677C43.6877 56.8499 43.4532 55.835 42.271 54.8303C39.8779 52.8311 40.1746 53.3666 39.1696 51.1328C37.9874 47.5067 39.0068 41.7947 39.8827 38.0768C40.122 37.0568 41.7541 35.9654 42.941 36.1286C44.5875 36.353 43.8983 37.2761 45.3054 37.8014C45.5497 37.8775 45.8024 37.9187 46.0568 37.9238C46.0719 37.9288 46.0878 37.9306 46.1035 37.9291C46.1193 37.9276 46.1346 37.9228 46.1486 37.915C46.1626 37.9072 46.175 37.8965 46.1851 37.8836C46.1952 37.8707 46.2029 37.8557 46.2076 37.8397C46.2123 37.8236 46.214 37.8067 46.2126 37.7899C46.2112 37.7731 46.2067 37.7568 46.1993 37.7419C46.192 37.727 46.182 37.7138 46.1698 37.703C46.1577 37.6922 46.1437 37.684 46.1286 37.679C45.3822 37.2019 44.6941 36.628 44.0802 35.9705C44.3721 34.7006 45.114 34.007 46.5067 33.9968C47.464 33.9968 48.2202 34.772 48.8998 35.435C49.723 36.2357 50.6085 38.3981 50.5415 39.5864C50.3901 40.9633 50.693 42.3535 51.3982 43.5185C51.8768 44.4059 52.7766 45.176 53.3126 45.9257C53.6094 46.3439 53.4371 48.2105 53.2648 49.0316C53.0398 49.7507 52.5612 51.1226 52.4511 51.4337C50.4505 51.5102 50.5367 52.6526 51.4939 53.1422C50.5989 54.2846 48.4116 55.5545 49.9767 57.1559C50.3117 57.9056 50.8478 58.9307 51.5657 59.2418C52.0751 59.4618 52.6022 59.6325 53.1403 59.7518C53.2456 60.5423 52.901 63.1586 52.3746 66.2033C49.6277 66.6902 46.8454 66.9138 44.061 66.8714C42.3332 63.8573 40.615 61.0013 40.1794 60.5423C41.1464 60.0185 41.9681 59.2343 42.5629 58.2677H42.539ZM39.2749 60.9554C40.2321 60.5729 39.7535 60.6392 39.9832 60.8279C40.2129 61.0166 41.7924 63.6839 43.6255 66.851C41.4526 66.8153 39.0068 66.6419 38.0831 66.5297C38.3607 66.2951 37.6428 62.2661 37.3652 61.7561C38.0592 61.4603 38.7005 61.2002 39.2988 60.9554H39.2749ZM37.011 61.9142C37.4045 63.416 37.672 64.952 37.8103 66.5042C35.7451 66.1888 33.7192 65.6295 31.7702 64.8365C33.4404 63.6981 35.2022 62.7202 37.0349 61.9142H37.011ZM37.4465 98.7872C35.6517 99.2666 33.5506 98.9861 31.7414 98.573C28.9128 97.9253 26.9553 95.9108 25.6822 93.3302C23.6576 89.2502 23.0546 83.1863 23.672 78.938C23.7964 78.0863 23.9544 77.2448 24.0884 76.388C24.8494 71.5277 27.6206 67.8659 31.4878 65.0966C35.2832 66.5807 37.8342 67.1009 43.7978 67.1366C47.9282 74.2766 48.0192 74.9906 49.2013 78.4841C48.8376 78.5555 47.1529 78.9176 46.8657 79.1675C46.7508 79.2644 46.7508 79.4582 46.8657 82.5233C42.5103 82.6151 38.2506 83.3393 34.2446 86.0933C33.766 82.4162 34.3164 81.3044 35.4316 79.1981C37.1833 75.8882 36.8674 75.2762 35.7618 73.3943C35.5796 73.1403 35.4491 72.8484 35.3789 72.5375C35.3789 72.4151 34.9003 72.2468 35.5752 73.5116C36.5324 75.368 36.7908 75.8066 35.0965 78.9941C33.8569 81.3299 33.3496 82.5284 34.0962 86.2004C33.7612 86.4401 33.3783 86.7104 33.0098 87.0266C32.4467 87.4491 31.9184 87.9217 31.4303 88.4393C31.4208 88.4589 31.419 88.4818 31.4253 88.5028C31.4316 88.5238 31.4454 88.5414 31.4638 88.5515C31.4823 88.5617 31.5037 88.5636 31.5234 88.5569C31.5432 88.5502 31.5596 88.5354 31.5691 88.5158C31.7175 88.2353 34.192 86.4758 34.8572 86.1137C38.5713 84.1196 42.6778 82.3958 49.4024 82.8701C49.3176 85.9021 49.6122 88.9327 50.2782 91.8818C46.8226 94.2074 41.912 97.604 37.4705 98.7872H37.4465ZM50.575 91.6778C49.9601 88.8017 49.6883 85.8544 49.7661 82.9058C57.0315 83.4158 54.7533 83.2526 57.0985 83.4158C57.1846 84.905 57.3139 86.5217 57.5053 88.0058C55.6291 88.3781 52.2549 90.5711 50.5989 91.6778H50.575ZM67.9678 97.7468C63.7417 98.8127 60.7408 96.3545 58.8359 92.1929C56.73 87.6029 57.0793 67.667 57.199 62.5874L61.5735 59.7008C67.4797 73.2923 68.188 74.5775 69.5138 79.0808C71.2272 84.8183 73.4863 96.3902 67.9918 97.7468H67.9678ZM71.8255 89.9438C71.7146 87.2129 71.3197 84.5035 70.6481 81.8654C69.1309 75.5771 67.4892 72.4253 62.9472 62.2508L63.0812 62.1743C67.092 64.4591 70.4902 71.5532 71.3804 76.2911C71.8686 78.7646 72.8019 86.8532 71.8494 89.9438H71.8255Z" fill="black"/>
</svg>
