<svg width="105" height="102" viewBox="0 0 105 102" fill="none" xmlns="http://www.w3.org/2000/svg">
<rect width="100%" height="100%" fill="white" />
<path d="M46.651 21.9605C46.5195 21.9336 46.3861 21.9165 46.252 21.9095C46.2218 21.9076 46.1919 21.9164 46.1678 21.9342C46.1437 21.952 46.127 21.9776 46.1207 22.0064C45.9527 22.6388 46.6457 22.6592 46.756 22.1033C46.7606 22.0709 46.7523 22.0381 46.7328 22.0115C46.7133 21.985 46.684 21.9667 46.651 21.9605ZM47.0447 20.0072C46.8188 19.9712 46.5871 20.0003 46.378 20.091C46.169 20.1816 45.992 20.3298 45.8687 20.5172C45.8365 20.5634 45.8228 20.6195 45.83 20.6749C45.8373 20.7302 45.8651 20.7811 45.9082 20.818C45.9514 20.8549 46.0069 20.8753 46.0644 20.8753C46.1218 20.8753 46.1773 20.855 46.2205 20.8181C46.4247 20.6592 46.6846 20.5842 46.945 20.609C47.491 20.6855 47.4752 20.0735 47.0447 20.0072ZM47.89 23.9699C47.9605 23.9607 48.0252 23.9269 48.0721 23.8748C48.1189 23.8228 48.1448 23.756 48.1448 23.6868C48.1448 23.6177 48.1189 23.5509 48.0721 23.4988C48.0252 23.4468 47.9605 23.413 47.89 23.4038H47.6432C47.6712 22.8512 47.7467 22.3019 47.869 21.7616C47.8834 21.7021 47.8733 21.6395 47.841 21.5872C47.8086 21.5348 47.7565 21.4967 47.6957 21.4811C47.6373 21.4666 47.5754 21.4744 47.5227 21.5029C47.47 21.5313 47.4305 21.5782 47.4122 21.6341C47.1818 22.2083 47.0591 22.8181 47.05 23.4344C47.05 23.6333 47.05 23.975 47.4857 23.9852C47.6207 23.9895 47.7558 23.9844 47.89 23.9699ZM50.326 21.0119C50.0951 20.8202 49.8174 20.6895 49.5195 20.6324C49.2215 20.5752 48.9135 20.5935 48.625 20.6855C48.5576 20.7335 48.5123 20.8051 48.4985 20.8852C48.4848 20.9652 48.5038 21.0473 48.5515 21.1139C48.7825 21.4301 49.444 21.0629 50.1265 21.5117C50.1828 21.5417 50.2477 21.5529 50.3112 21.5437C50.3747 21.5345 50.4334 21.5053 50.4782 21.4607C50.5517 21.3485 50.5097 21.2006 50.326 21.0119ZM49.234 24.3626C49.0162 24.5344 48.7624 24.6581 48.4905 24.725C48.2185 24.792 47.9347 24.8005 47.659 24.7502C47.5956 24.7387 47.5302 24.7521 47.477 24.7875C47.4238 24.8229 47.3873 24.8773 47.3755 24.9389C47.3636 25.0004 47.3775 25.064 47.4139 25.1157C47.4503 25.1673 47.5064 25.2028 47.5697 25.2143C47.9396 25.2922 48.3225 25.2906 48.6916 25.2096C49.0607 25.1285 49.4071 24.97 49.7065 24.7451C50.0845 24.383 49.6645 23.9189 49.234 24.3626ZM49.6487 22.2614C49.6526 22.2443 49.6529 22.2266 49.6497 22.2094C49.6465 22.1922 49.6398 22.1758 49.6301 22.1611C49.6203 22.1464 49.6077 22.1337 49.5928 22.1238C49.578 22.1139 49.5613 22.1069 49.5437 22.1033C49.4019 22.0769 49.2573 22.0683 49.1132 22.0778C49.0869 22.078 49.0613 22.0866 49.0405 22.1022C49.0196 22.1179 49.0046 22.1398 48.9977 22.1645C48.8245 22.6949 49.4177 23.1284 49.6487 22.2614Z" fill="black"/>
<path fill-rule="evenodd" clip-rule="evenodd" d="M48.5358 29.07C47.8848 29.07 47.8113 29.3403 47.8638 30.09C47.9373 31.11 47.932 31.161 48.7983 31.161C49.6645 31.161 49.738 31.161 49.7486 30.0798C49.759 28.9986 49.528 29.07 48.5358 29.07ZM44.8608 55.6716C44.8608 55.7014 44.873 55.7299 44.8946 55.751C44.9163 55.772 44.9457 55.7838 44.9763 55.7838C45.0069 55.7838 45.0363 55.772 45.058 55.751C45.0796 55.7299 45.0918 55.7014 45.0918 55.6716C44.4764 47.4888 45.7332 39.2752 48.772 31.62C48.8508 31.4211 48.5358 31.2732 48.4623 31.4772C46.0292 37.4628 44.7291 43.826 44.6245 50.2605C44.6245 52.0659 44.7085 53.8713 44.8608 55.6716ZM16.9938 52.5963C16.033 52.7289 15.0723 52.7748 14.1063 52.8258C13.6357 51.6671 13.0447 50.5581 12.3423 49.5159C11.9275 49.0059 11.7438 50.4696 10.9405 53.2287L7.66454 53.9835C7.51229 54.0192 7.31804 54.3915 7.51229 54.5292C8.12129 54.9627 9.32354 55.641 10.0113 56.0133C9.70679 56.8548 9.15029 58.3134 8.96129 59.1039C8.91404 59.2824 9.24479 59.6139 9.43904 59.4558L12.7518 57.018C13.8272 57.6447 14.9505 58.1903 16.1118 58.65C16.1581 58.6705 16.2094 58.6782 16.2599 58.6723C16.3105 58.6664 16.3584 58.6471 16.3984 58.6166C16.4385 58.5861 16.4692 58.5455 16.4871 58.4993C16.5051 58.453 16.5096 58.4028 16.5003 58.3542C16.1728 57.3163 15.7456 56.3106 15.2245 55.3503C15.9753 54.6057 16.6788 53.8203 17.4033 53.0451C17.6028 52.785 17.23 52.5657 16.9938 52.5963ZM14.6995 55.3248C15.0933 56.202 15.5185 57.0588 15.823 57.9666C15.403 57.7881 12.7308 56.3754 12.568 56.4825L9.60704 58.7367C9.92204 57.7779 10.2318 56.8191 10.5468 55.8654C10.6465 55.5441 8.39954 54.5394 8.02679 54.3354C8.55179 54.2283 10.93 53.8254 11.2555 53.6112C11.3553 53.5449 12.1428 50.8827 12.3055 50.3982C12.568 50.8011 13.7545 53.2236 13.9698 53.2338C14.8581 53.2798 15.7488 53.2491 16.6315 53.142C16.369 53.4021 14.626 55.131 14.7153 55.335L14.6995 55.3248ZM12.7045 42.2892C13.0143 42.4575 13.093 41.9985 13.0615 41.82L12.3843 38.9232L14.7258 37.4799C15.004 37.3065 15.3085 36.8679 14.8833 36.7965C13.807 36.6129 12.7203 36.4752 11.6388 36.3171C11.3132 35.1567 10.9135 34.0172 10.4418 32.9052C10.4212 32.8619 10.3883 32.8251 10.3469 32.7994C10.3055 32.7736 10.2573 32.7599 10.2082 32.7599C10.159 32.7599 10.1109 32.7736 10.0695 32.7994C10.0281 32.8251 9.99512 32.8619 9.97454 32.9052C9.65954 33.6396 9.13454 35.2869 8.88779 36.1029C8.01629 36.1488 5.92154 36.2151 5.21279 36.3324C5.05529 36.3834 4.87154 36.6894 5.02379 36.8424L7.27079 38.8212C7.03979 39.8106 6.82454 40.8153 6.62504 41.8149C6.58829 42.0036 6.82454 42.2127 7.01354 42.1005C8.01629 41.5191 9.00329 40.9071 9.99029 40.3053C10.8618 40.9887 11.7805 41.6364 12.7045 42.2892ZM7.68029 38.6172C7.02577 37.9626 6.32399 37.3541 5.58029 36.7965L8.98754 36.6486C9.32879 36.6486 10.111 34.0272 10.258 33.6243C10.5153 34.3995 10.9615 35.7306 11.1243 36.2406C11.287 36.7506 11.077 36.669 11.6755 36.7506L14.3005 37.1688L12.043 38.6529C11.8278 38.7957 12.442 41.2029 12.5155 41.5752L10.09 39.8565C9.82229 39.6678 7.46504 41.2794 7.10804 41.5089C7.28129 40.8459 7.87454 39.2292 7.68029 38.6172ZM30.2868 69.87C29.8405 69.9108 27.583 70.0485 27.1945 70.1454L25.8925 68.0442C25.798 67.8708 25.4725 66.9681 25.1103 67.0905C25.0263 67.0905 24.9738 67.1568 24.9265 67.3659C24.8373 67.7229 24.7585 68.5644 24.5275 70.6758C23.4775 70.9257 22.4538 71.1858 21.43 71.502C21.2778 71.5479 21.1203 71.8947 21.2935 72.012C22.1866 72.5787 23.124 73.0767 24.097 73.5012C23.9185 74.2407 23.8398 75.0006 23.719 75.7452C23.6298 76.3266 23.3883 77.2242 24.4068 76.4592C25.162 75.8927 25.8647 75.263 26.5068 74.5773C27.2523 74.919 28.906 75.6789 29.6148 75.8982C29.683 75.9237 30.1398 75.9492 30.061 75.6585C29.6277 74.6533 29.1005 73.6888 28.486 72.777C29.1436 72.0751 29.7622 71.3397 30.3393 70.5738C30.5913 70.3035 30.7225 69.8343 30.2868 69.87ZM28.0818 72.8637L29.3523 75.2505C29.011 75.1128 26.4858 73.9755 26.3755 74.052C25.6458 74.7507 24.9738 75.378 24.1915 76.0308C24.265 75.5565 24.7165 73.2717 24.517 73.1442C23.6193 72.7209 22.753 72.2976 21.892 71.8335C22.291 71.7417 24.8688 71.2368 24.958 70.9665C25.1313 70.431 25.2783 68.799 25.3728 68.1411C25.8098 68.9645 26.338 69.7392 26.9478 70.4514C27.1788 70.7268 29.4835 70.4514 29.914 70.3953C29.6095 70.7217 27.8928 72.5271 28.0818 72.8637ZM87.2493 25.5816C88.1331 26.0246 89.0622 26.3768 90.0213 26.6322L90.3153 29.7432C90.3416 29.9574 90.7248 29.9982 90.8088 29.8605L92.6568 27.03C93.8013 27.2391 94.9301 27.5094 96.0641 27.7797C96.4368 27.8664 96.7413 27.5757 96.3213 27.0606C95.6388 26.2879 95.0125 25.4699 94.4471 24.6126C94.5678 24.4035 95.8856 22.2054 95.9223 21.9453C95.9194 21.862 95.8879 21.7821 95.8326 21.7183C95.7774 21.6545 95.7018 21.6105 95.6178 21.5934C95.5496 21.5934 92.9928 22.5828 92.7356 22.6797C92.4363 22.4349 90.3941 20.5887 90.3048 20.4051C90.1211 20.0583 89.8166 20.0277 89.7798 20.349L89.7168 23.6946L87.2546 24.9288C87.0866 25.0155 87.0813 25.5 87.2493 25.5816ZM90.1736 23.8986C90.2785 23.2968 90.2681 21.8229 90.2838 21.0834C90.9517 21.8305 91.6919 22.5136 92.494 23.1234C92.7461 23.3121 94.7463 22.4604 95.2188 22.2666L94.0323 24.4239C94.0323 25.2042 95.2241 26.6271 95.7701 27.1932C95.3553 27.0861 92.5518 26.3262 92.3681 26.5965C91.8431 27.4431 91.2341 28.356 90.7038 29.2026L90.5673 27.1626C90.4886 26.0253 90.3941 26.2548 89.5488 25.9641L87.5696 25.2501C88.0421 25.092 90.1105 24.2556 90.1736 23.8986ZM78.0198 73.1799C78.0198 72.9198 76.5131 70.9206 76.2558 70.6299C76.3451 70.4871 77.6576 68.0187 77.7363 67.7484C77.8676 67.2384 77.5368 67.1568 77.2848 67.2384C76.3031 67.6056 75.4368 67.8147 74.4603 68.1156C73.6658 67.0956 72.8748 66.0756 72.0873 65.0556C71.7775 64.6986 71.5623 65.4942 71.5623 65.7135C71.494 66.657 71.3261 68.1105 71.3523 68.952L68.3598 70.3137C68.0763 70.4514 68.3598 70.7676 68.4543 70.8237L71.2316 71.8131C71.2316 72.8331 71.0373 74.3631 71.1318 75.2658C71.1318 75.4341 71.4993 75.5463 71.6096 75.4188C72.439 74.4855 73.2371 73.5267 74.0351 72.5628C75.2632 73.0014 76.5209 73.3576 77.7993 73.6287C78.1091 73.7001 78.2718 73.2972 78.0198 73.1799ZM73.7883 72.0732C73.0533 72.9504 72.3236 73.8378 71.6148 74.7405C71.6411 74.2662 71.8511 71.7825 71.7355 71.4765C71.6726 71.3133 69.3468 70.6605 69.0108 70.5534C69.2785 70.4463 71.5623 69.5079 71.7565 69.3396C71.9508 69.1713 72.0611 66.2541 72.0926 65.8104L74.1453 68.5899C74.3816 68.8143 76.6653 68.0187 77.1168 67.8453C76.6933 68.7395 76.2663 69.6286 75.8358 70.5126C75.7203 70.8543 77.0906 72.6393 77.3426 73.0014C76.9226 72.8943 73.8881 71.9508 73.7883 72.0732ZM99.8493 44.0028L97.9016 41.6772C98.2166 40.9938 98.9516 38.9232 99.0513 38.5611C99.0572 38.4964 99.0394 38.4317 99.001 38.3785C98.9625 38.3253 98.906 38.287 98.8413 38.2704C98.6261 38.199 96.3056 39.2139 95.9591 39.3465C95.1958 38.5381 94.4823 37.6866 93.8223 36.7965C93.6438 36.5364 93.3813 36.8475 93.3341 36.9597C93.2868 37.0719 93.1556 40.1115 93.1293 40.5297L89.6643 41.82C89.4281 41.9169 89.5436 42.3759 89.6958 42.4167L93.0611 43.2837V46.6803C93.0611 46.9098 93.2291 47.7003 93.5598 47.3331C94.3946 46.2519 95.3028 45.1044 96.1323 44.0181C98.3846 44.268 99.1721 44.5944 99.8073 44.4465C99.8595 44.4388 99.9075 44.4144 99.9437 44.377C99.9799 44.3397 100.002 44.2917 100.007 44.2406C100.012 44.1896 99.999 44.1384 99.9704 44.0953C99.9418 44.0522 99.8992 44.0196 99.8493 44.0028ZM95.8751 43.5642C95.1401 44.5485 94.3368 45.6042 93.6018 46.5783C93.6018 45.8592 93.5651 43.6356 93.4758 43.2174C93.8748 42.7074 90.5673 42.1974 90.1841 42.1005C90.5883 41.9577 93.4758 41.0805 93.5231 40.8153C93.6963 39.7366 93.7963 38.6479 93.8223 37.5564C94.0691 37.9134 95.4393 39.8769 95.8541 39.7443C96.0851 39.9177 97.9541 39.1221 98.3951 38.913C98.2796 39.2751 97.3451 41.6415 97.4973 41.871C98.0223 42.5493 98.6208 43.2786 99.1511 43.9569C98.6261 43.9569 96.0011 43.4469 95.8646 43.5642H95.8751ZM93.7436 59.8791C93.9326 59.5527 95.0193 57.7269 95.0718 57.4923C95.0617 57.4355 95.04 57.3811 95.008 57.3325C94.976 57.2839 94.9344 57.2419 94.8855 57.2091C94.8366 57.1764 94.7814 57.1534 94.7233 57.1416C94.6651 57.1298 94.6051 57.1294 94.5468 57.1404C93.5808 57.4464 92.6358 57.732 91.6646 58.0176C90.7301 57.1506 89.7693 56.2836 88.8033 55.437C88.7714 55.4101 88.7336 55.3906 88.6927 55.38C88.6519 55.3694 88.6091 55.3679 88.5676 55.3758C88.5261 55.3837 88.487 55.4006 88.4532 55.4254C88.4195 55.4501 88.392 55.482 88.3728 55.5186C88.2468 55.8195 88.5566 58.8183 88.6301 59.3181L85.3856 60.9093C85.3016 60.9552 85.0338 61.3479 85.3173 61.4193L89.1656 62.0007C89.1986 63.3341 89.3745 64.6604 89.6906 65.9583C89.8113 66.1827 90.2471 66.0552 90.3258 65.9226L92.3103 62.3883C93.2238 62.5719 94.4103 62.7963 95.3238 62.9799C95.8803 63.1074 96.2846 62.8422 95.9066 62.4699C95.1768 61.6182 94.4313 60.7665 93.7436 59.8791ZM92.1686 61.9752C91.8641 62.067 90.3941 65.0046 90.1683 65.433C90.0843 64.9587 89.6958 61.6284 89.4648 61.5417C89.2338 61.455 86.3516 61.1286 86.0471 61.1031C86.4303 60.9297 89.1236 59.8332 89.1288 59.5119C89.1288 58.3746 88.9871 57.2628 88.9503 56.1306C89.7763 56.9296 90.6076 57.7184 91.4441 58.497C91.675 58.7265 93.9956 57.8952 94.3841 57.7524C94.0323 58.4103 93.3341 59.3436 93.3341 60.0678C93.9155 60.8964 94.5503 61.6885 95.2346 62.4393C94.7148 62.3271 92.4311 61.8477 92.1476 61.9752H92.1686ZM60.3378 95.88C60.2853 95.4924 60.3378 93.4524 60.2696 93.1362C60.7638 93.1492 61.2577 93.1012 61.7396 92.9934C61.9443 92.8302 62.9418 64.6221 62.695 59.7822C60.6318 60.9399 54.8988 63.9081 52.195 63.4542C50.4888 63.1686 47.3703 61.0419 46.2258 59.9301C45.3438 59.0682 45.3385 57.7881 45.4278 56.6559L42.8028 56.5794C42.6787 57.7582 42.2204 58.8805 41.4789 59.8213C40.7374 60.7622 39.7418 61.4849 38.6028 61.9089C36.886 71.8794 35.3898 82.5588 35.038 93.0189C35.038 93.1362 35.7205 93.177 36.256 93.1923C36.214 93.5238 35.941 95.5638 35.9935 95.7423C34.8963 96.2115 31.3683 97.7211 31.2685 99.042C31.1898 99.8529 40.456 99.3123 40.5033 99.042C40.5873 98.6391 40.5033 96.5685 40.225 96.237C40.435 95.217 40.6398 94.197 40.8445 93.177C41.8158 93.1362 42.5718 93.177 42.6085 93.0036C44.2465 86.6133 47.2023 80.6769 49.0293 74.3223C48.6355 71.9457 48.2051 69.1815 47.8953 66.7998C47.2128 66.5029 46.5891 66.0921 46.0525 65.586C45.5695 65.1321 46.252 64.9383 46.651 65.1627C47.7483 65.7849 48.625 66.045 48.6565 66.2592C49.7065 72.6393 53.1558 87.5211 54.6573 92.973C54.694 93.1005 55.2873 93.0903 55.8963 93.1311C56.0275 94.0644 56.1693 95.0487 56.3478 95.9769C56.0958 96.0279 55.8228 98.6136 56.0695 98.7921C56.5946 99.1542 64.4696 99.6489 64.6376 99.2052C64.8056 98.7615 62.8578 97.0173 60.3378 95.88ZM39.9625 96.1248C38.7235 95.9922 37.4268 96.1911 36.235 95.7678C36.407 94.9163 36.5332 94.0566 36.613 93.1923H40.4823C40.21 94.1508 40.0359 95.1331 39.9625 96.1248ZM56.6103 95.9718C56.5158 95.0232 56.3845 94.0848 56.2428 93.1413C57.507 93.2127 58.7744 93.2127 60.0386 93.1413C59.9389 94.0483 59.9389 94.9629 60.0386 95.8698C58.9006 95.9954 57.754 96.0295 56.6103 95.9718Z" fill="black"/>
<path fill-rule="evenodd" clip-rule="evenodd" d="M78.7494 4.40116C78.6811 3.82486 78.2821 4.03396 78.1194 4.24816C73.2684 10.4345 68.3911 16.5953 63.6031 22.8224C58.3374 16.3709 51.1449 8.33836 44.9394 2.60086C44.8029 2.47846 44.4931 2.60086 44.4406 2.74876C41.8944 10.2356 39.4846 18.6557 37.4844 26.3567C31.0006 22.9652 22.2594 19.2167 15.3294 16.4015C15.1719 16.3403 14.5681 16.2587 14.6574 16.631C18.7996 34.7615 24.8424 53.9987 26.9686 59.7464C27.1156 60.1544 27.2364 60.2003 27.6669 60.1442C30.7644 59.7974 33.9669 59.1854 37.0644 58.6856L37.1904 60.338C37.2901 61.664 38.3611 61.0214 39.1171 60.5216C40.3238 59.8357 41.2185 58.7315 41.6214 57.431C42.0939 55.8398 42.0361 48.3581 42.1464 46.2467C42.5244 46.4252 43.3696 45.701 43.1334 44.8697C43.3043 44.7173 43.4159 44.5124 43.4494 44.2894C43.4829 44.0664 43.4362 43.8391 43.3171 43.6457C44.1834 42.9419 43.3539 41.9168 42.5506 41.5445C42.9706 37.8419 44.0259 32.1197 45.2229 29.6666L45.5221 29.5493C45.4942 30.1486 45.5188 30.7492 45.5956 31.3445C45.6005 31.4016 45.6203 31.4566 45.6532 31.5042C45.6861 31.5519 45.7309 31.5906 45.7835 31.6166C45.8361 31.6427 45.8947 31.6552 45.9537 31.6531C46.0127 31.651 46.0702 31.6343 46.1206 31.6046C46.5895 31.2968 47.0383 30.9613 47.4646 30.5999C47.4131 30.1887 47.4008 29.7739 47.4279 29.3606C46.9598 28.9441 46.4286 28.6001 45.8529 28.3406C45.4959 28.1978 45.5431 28.9628 45.5326 29.126C38.9806 31.6199 32.0926 37.7042 30.1501 44.4566C29.2366 47.6339 29.5621 55.0391 34.8751 54.1823C36.9279 53.8457 39.0279 51.4487 40.2459 49.5566C41.1016 48.2204 41.4691 49.2557 40.8759 50.1788C39.8413 51.7174 38.5861 53.105 37.1484 54.2996C37.0399 55.5717 37.0101 56.849 37.0591 58.1246C33.9091 58.6346 30.6699 59.2415 27.4831 59.7158C26.0814 55.1258 21.0151 40.9988 15.3084 16.8758C21.9969 19.6655 30.6279 23.6231 37.0591 26.7698C37.7626 27.1166 37.7626 27.1982 37.9464 26.5097C40.0464 18.9107 42.3511 10.5212 44.8816 3.18736C51.3549 9.73576 57.4291 16.172 63.2566 23.3171C63.3564 23.4395 63.6399 23.5772 63.7816 23.4089C68.6956 17.2583 73.5204 11.0414 78.3766 4.84486C79.9201 19.6757 80.9334 35.0624 80.7549 50.3624C77.2899 51.0424 73.8231 51.7003 70.3546 52.3361C73.1266 47.7767 70.3284 41.5547 67.4304 37.6889C63.9207 32.9971 58.7937 29.6853 52.9824 28.3559C52.9824 26.6984 52.8721 25.1276 53.7646 23.6282C54.0324 23.1743 54.4524 22.7663 54.3631 22.2104C55.5339 21.2822 56.1429 19.5737 56.4264 18.1814C56.9094 15.8201 54.8514 16.3301 53.4864 16.6871C51.7381 17.141 48.8086 16.4831 47.1339 16.0241C46.1259 15.7487 43.5954 15.1163 43.2331 16.5953C42.9339 17.7938 44.7031 18.9005 45.6849 19.2269C44.8396 22.0064 44.1099 27.4685 47.0499 28.0703C47.0499 28.2437 47.0131 28.4171 46.9974 28.5803C47.1234 28.6313 47.2441 28.6874 47.3544 28.7435C47.3544 28.5446 47.4279 27.7898 47.1654 27.7235C45.2334 27.1115 45.2229 24.6635 45.3384 23.0672C45.4389 21.8009 45.6318 20.5431 45.9159 19.3034C47.1862 19.6149 48.526 19.522 49.7379 19.0382C50.4729 18.7679 52.2001 17.6969 52.9666 18.3038C53.6229 18.8138 52.0059 19.4258 52.2211 21.5474C52.3629 22.9652 53.1556 21.7616 53.7541 21.9401C53.8333 21.968 53.9013 22.0196 53.9485 22.0874C53.9956 22.1551 54.0195 22.2357 54.0166 22.3175C54.0639 23.1233 52.3314 23.6945 52.5886 28.1876C52.1214 28.0652 50.5516 29.1668 50.1736 29.432C50.2298 29.8716 50.2174 30.3169 50.1369 30.7529C50.8929 31.2068 52.2054 31.7423 52.3419 31.6607C52.5781 31.523 52.9929 29.5544 52.9194 28.7486C53.4916 28.8761 54.0586 29.0291 54.6151 29.2025C52.8301 31.2425 49.0974 38.5202 48.5934 41.4425C48.2211 41.4073 47.846 41.4713 47.5084 41.6276C47.1708 41.784 46.8834 42.0268 46.6771 42.3299C46.0839 43.2632 45.6796 45.1553 46.4619 46.0376C46.7192 46.2878 47.0425 46.4643 47.3964 46.5476C46.7485 50.0528 46.3747 53.6006 46.2781 57.1607C46.2781 58.0328 46.3149 58.6907 47.1234 59.4098C48.2574 60.4298 50.7984 62.2505 52.2894 62.4698C54.5364 62.8421 60.8416 59.9708 63.0466 58.3898C63.2652 58.185 63.398 57.9088 63.4194 57.6146C63.49 57.128 63.5023 56.6351 63.4561 56.1458C58.507 55.4977 53.8979 53.3385 50.2944 49.9799C49.7694 49.4699 50.2156 48.8834 50.7879 49.3883C55.3501 53.4071 64.8999 58.247 69.8821 52.9583C73.6131 52.2783 77.3424 51.5711 81.0699 50.8367C81.3219 50.7908 81.2799 50.5052 81.2799 50.291C81.3755 34.9591 80.5305 19.6354 78.7494 4.40116ZM40.0989 36.4853C40.1566 36.2354 40.9336 35.5979 41.2749 35.3327C40.9599 35.1338 40.3141 34.6799 40.3719 34.3841C40.4821 33.8282 42.0309 31.7627 42.4141 31.2833C42.6714 30.9671 43.2069 31.37 42.9391 31.6913C42.2943 32.5164 41.7317 33.3993 41.2591 34.328C42.0099 35.0114 42.2776 34.9655 42.3091 35.2511C42.3091 35.6999 41.3116 36.2711 40.8864 36.6485C40.9389 37.7263 40.9931 38.8058 41.0491 39.887C41.0491 40.3154 40.4086 40.3205 40.3719 39.887C40.3351 39.4535 40.0201 36.8168 40.0989 36.4853ZM41.8524 41.3558C41.4381 41.2963 41.0156 41.3241 40.6134 41.4374C41.0335 40.9447 41.3284 40.3629 41.4744 39.7391C41.6214 39.2291 41.9259 39.3107 41.9994 39.6983C42.0663 40.2547 42.0163 40.8186 41.8524 41.3558ZM42.4089 41.8658C43.0756 42.182 43.5586 42.7073 43.1281 43.4213C42.9181 43.1816 42.2409 42.5492 41.9049 42.7226C41.8869 42.7321 41.8714 42.7455 41.8595 42.7617C41.8476 42.7778 41.8396 42.7964 41.836 42.816C41.8325 42.8356 41.8336 42.8557 41.8391 42.8748C41.8447 42.894 41.8546 42.9116 41.8681 42.9266C41.9521 43.0184 43.5849 43.6712 42.9759 44.5739C42.8236 44.3189 42.2881 43.8548 41.9731 43.9211C41.9559 43.9235 41.9395 43.9293 41.9247 43.9382C41.9099 43.9471 41.8972 43.9588 41.8874 43.9727C41.8775 43.9866 41.8707 44.0023 41.8674 44.0189C41.8641 44.0355 41.8643 44.0525 41.8681 44.069C41.9311 44.3699 42.7239 44.3342 42.8131 45.089C42.8335 45.2846 42.7827 45.481 42.6695 45.644C42.5563 45.8071 42.388 45.9264 42.1936 45.9815C42.4666 45.4715 41.7264 45.0737 41.3064 45.4715C41.2486 45.5225 41.2486 45.6755 41.4954 45.6041C41.5709 45.5836 41.6508 45.5836 41.7264 45.6041C41.2014 47.027 39.4321 46.1906 39.1014 44.8595C38.9024 44.0051 39.053 43.109 39.5214 42.3605C40.5504 41.7842 41.1961 41.3099 42.4089 41.8862V41.8658ZM32.5861 43.9058C32.5227 43.933 32.4514 43.9375 32.3848 43.9186C32.3183 43.8996 32.2608 43.8584 32.2224 43.8023C32.1841 43.7461 32.1675 43.6786 32.1754 43.6117C32.1834 43.5448 32.2154 43.4828 32.2659 43.4366C33.7214 42.4087 35.3774 41.6799 37.1326 41.2946C37.4903 39.902 37.9572 38.538 38.5291 37.2146C38.6604 36.9035 39.1906 37.1126 39.0541 37.4186C38.5808 38.6456 38.1897 39.9011 37.8834 41.1773C38.1179 41.1535 38.3489 41.1382 38.5764 41.1314C38.8651 41.1314 38.9754 41.57 38.6656 41.6414C36.4915 41.971 34.4171 42.7559 32.5861 43.9415V43.9058ZM40.5346 48.2816C37.8676 47.8583 36.2139 44.8748 38.4924 42.3554L39.2484 42.3299C38.5134 43.2071 38.4346 45.3287 39.6106 46.2722C39.8125 46.4373 40.0493 46.5572 40.3043 46.6233C40.5593 46.6894 40.8262 46.7001 41.0859 46.6547C40.9736 47.2289 40.7884 47.7873 40.5346 48.3173V48.2816ZM50.8246 40.5755C51.2866 39.9584 53.0716 37.5155 53.5336 37.0055C53.2974 36.776 52.7251 36.1742 52.8039 35.807C52.8152 35.7494 52.8428 35.696 52.8836 35.6527C52.9244 35.6095 52.9768 35.5781 53.0349 35.5622L54.7201 34.9298L55.7701 30.9722C55.7769 30.9295 55.7926 30.8886 55.8165 30.8521C55.8404 30.8157 55.8718 30.7845 55.9088 30.7605C55.9457 30.7364 55.9875 30.7202 56.0312 30.7127C56.075 30.7052 56.12 30.7067 56.1632 30.717C56.2063 30.7273 56.2468 30.7462 56.2821 30.7726C56.3173 30.7989 56.3465 30.8321 56.3678 30.87C56.3891 30.908 56.4021 30.9498 56.4058 30.9928C56.4096 31.0359 56.4041 31.0792 56.3896 31.1201C56.2269 31.7933 55.6704 35.1389 55.2189 35.4755C54.7575 35.7388 54.2586 35.9347 53.7384 36.0569C54.1374 36.4037 54.5836 36.7607 54.2949 37.235C54.1584 37.4747 51.7434 40.5245 51.3601 40.9937C51.1134 41.3099 50.5831 40.9325 50.8246 40.6112V40.5755ZM49.2181 40.2899C50.2314 38.5457 50.1789 40.0808 50.0896 40.9376C50.066 41.2007 50.1037 41.4657 50.1999 41.7128C49.7744 41.5396 49.3217 41.4379 48.8611 41.4119C48.8979 41.0177 49.0196 40.6354 49.2181 40.2899ZM46.7244 45.7775C46.0261 45.1706 46.5144 43.1918 47.0236 42.4574C47.6641 41.5496 49.0396 41.5496 49.9794 41.9474C49.2674 42.4464 48.7227 43.1384 48.4136 43.9367C48.1045 44.735 48.0447 45.6042 48.2416 46.4354C47.6976 46.3113 47.1827 46.0881 46.7244 45.7775ZM50.1421 48.2561L48.5671 46.7261C48.0421 44.4158 49.1656 42.5543 50.6356 41.9933C51.1291 42.029 51.6856 41.9933 52.1791 41.9933C50.8246 43.5998 49.6854 46.1192 50.1159 48.2561H50.1421ZM65.6244 44.4974C61.9021 42.6635 57.786 41.7111 53.6124 41.7179C53.2449 41.7179 53.2764 41.2079 53.6124 41.1722C55.1639 41.1031 56.7187 41.1851 58.2534 41.417C58.2009 41.2283 57.9646 40.3664 57.8964 40.1267C57.8671 40.059 57.8668 39.9829 57.8953 39.915C57.9239 39.8471 57.979 39.793 58.0486 39.7646C58.1183 39.7362 58.1966 39.7358 58.2665 39.7635C58.3364 39.7913 58.3921 39.8448 58.4214 39.9125C58.6748 40.441 58.8787 40.9906 59.0304 41.5547C61.4432 42.0042 63.7543 42.8677 65.8554 44.1047C66.1861 44.2475 65.9131 44.6351 65.6244 44.4974Z" fill="black"/>
</svg>
